<?xml version="1.0" standalone="no"?>
<!DOCTYPE svg PUBLIC "-//W3C//DTD SVG 20010904//EN"
 "http://www.w3.org/TR/2001/REC-SVG-20010904/DTD/svg10.dtd">
<svg version="1.0" xmlns="http://www.w3.org/2000/svg"
 width="512.000000pt" height="512.000000pt" viewBox="0 0 512.000000 512.000000"
 preserveAspectRatio="xMidYMid meet">

<g transform="translate(0.000000,512.000000) scale(0.100000,-0.100000)"
fill="#000000" stroke="none">
<path d="M2375 5110 c-714 -81 -1302 -587 -1474 -1268 -28 -110 -52 -268 -44
-289 9 -22 290 -368 478 -588 201 -235 406 -454 643 -687 249 -245 248 -244
356 -196 138 60 693 338 841 421 244 137 406 245 826 554 173 127 240 182 250
204 8 21 12 79 11 172 -6 826 -609 1526 -1432 1663 -108 18 -351 25 -455 14z
m342 -435 c330 -54 618 -271 769 -580 24 -50 44 -95 44 -100 0 -6 21 -21 46
-34 128 -69 186 -233 132 -378 -15 -43 -37 -73 -80 -114 -32 -31 -58 -62 -58
-69 0 -7 -16 -60 -35 -118 -104 -309 -329 -544 -631 -658 -404 -152 -869 -20
-1146 325 -99 124 -191 313 -212 437 -5 30 -15 44 -41 62 -71 46 -125 153
-125 247 0 102 64 215 149 263 42 23 53 36 72 82 99 244 305 455 549 561 47
20 100 40 118 44 l32 7 -27 -59 c-23 -51 -27 -71 -27 -158 -1 -91 2 -105 28
-160 72 -147 237 -238 387 -214 246 39 362 321 204 497 -92 102 -209 121 -251
41 -30 -60 -11 -117 52 -153 48 -27 66 -59 53 -95 -23 -59 -84 -92 -144 -77
-32 8 -92 61 -111 97 -21 42 -17 87 15 155 24 52 120 164 140 164 3 0 47 -7
98 -15z"/>
<path d="M2062 3705 c-38 -32 -48 -72 -28 -118 43 -104 196 -73 196 39 0 90
-100 137 -168 79z"/>
<path d="M2911 3699 c-42 -42 -43 -95 -2 -141 25 -28 36 -33 75 -33 64 0 101
37 101 101 0 39 -5 50 -33 75 -46 41 -99 40 -141 -2z"/>
<path d="M2431 3190 c-52 -11 -91 -35 -91 -56 0 -22 25 -66 52 -91 50 -47 164
-66 252 -42 57 16 117 76 119 119 2 31 -2 37 -36 54 -45 22 -223 31 -296 16z"/>
<path d="M942 2984 c-50 -20 -66 -55 -64 -137 3 -108 71 -1324 77 -1382 10
-88 53 -287 80 -370 51 -156 142 -328 246 -466 424 -561 1188 -776 1851 -520
204 79 414 216 556 364 54 57 62 70 62 104 0 21 -7 49 -16 61 -9 13 -91 73
-182 134 -373 249 -858 602 -1122 816 -441 359 -832 744 -1251 1232 -64 74
-125 142 -135 151 -27 23 -67 28 -102 13z"/>
<path d="M3899 2718 c-387 -277 -564 -382 -1039 -619 -173 -86 -324 -167 -335
-179 -24 -27 -27 -98 -5 -125 20 -24 319 -256 527 -408 350 -257 781 -550 825
-560 39 -10 92 19 116 62 65 115 128 318 156 501 19 122 89 1348 80 1385 -10
39 -59 75 -103 75 -33 0 -64 -19 -222 -132z"/>
</g>
</svg>
